<mxfile host="app.diagrams.net" modified="2021-03-31T15:45:27.227Z" agent="5.0 (Windows NT 10.0; Win64; x64) AppleWebKit/537.36 (KHTML, like Gecko) Chrome/89.0.4389.90 Safari/537.36" etag="T8pifh1lfyGqQA0kYOhg" version="14.5.3" type="github" pages="3">
  <diagram id="eWj4lpcofcfQhoRH_bq7" name="Page-1">
    <mxGraphModel dx="794" dy="461" grid="1" gridSize="10" guides="1" tooltips="1" connect="0" arrows="1" fold="1" page="1" pageScale="1" pageWidth="1169" pageHeight="827" math="0" shadow="0">
      <root>
        <mxCell id="0" />
        <mxCell id="1" parent="0" />
        <mxCell id="cwXzwgtSC625YARh7HG3-1" value="&lt;b&gt;&lt;i&gt;&lt;u&gt;&lt;font style=&quot;font-size: 40px&quot;&gt;@M. Haerudin&lt;/font&gt;&lt;/u&gt;&lt;/i&gt;&lt;/b&gt;" style="text;html=1;strokeColor=none;fillColor=none;align=center;verticalAlign=middle;whiteSpace=wrap;rounded=0;fontColor=#C9C9C9;" parent="1" vertex="1">
          <mxGeometry x="610" y="337.5" width="490" height="70" as="geometry" />
        </mxCell>
        <mxCell id="cwXzwgtSC625YARh7HG3-2" value="&lt;b&gt;&lt;i&gt;&lt;u&gt;&lt;font style=&quot;font-size: 40px&quot;&gt;@M. Haerudin&lt;/font&gt;&lt;/u&gt;&lt;/i&gt;&lt;/b&gt;" style="text;html=1;strokeColor=none;fillColor=none;align=center;verticalAlign=middle;whiteSpace=wrap;rounded=0;fontColor=#C9C9C9;" parent="1" vertex="1">
          <mxGeometry x="10" y="400" width="490" height="70" as="geometry" />
        </mxCell>
        <mxCell id="cwXzwgtSC625YARh7HG3-3" value="" style="edgeStyle=orthogonalEdgeStyle;rounded=0;orthogonalLoop=1;jettySize=auto;html=1;endArrow=none;endFill=0;" parent="1" source="cwXzwgtSC625YARh7HG3-5" target="cwXzwgtSC625YARh7HG3-10" edge="1">
          <mxGeometry relative="1" as="geometry" />
        </mxCell>
        <mxCell id="cwXzwgtSC625YARh7HG3-4" value="" style="edgeStyle=orthogonalEdgeStyle;rounded=0;orthogonalLoop=1;jettySize=auto;html=1;endArrow=none;endFill=0;" parent="1" source="cwXzwgtSC625YARh7HG3-5" target="cwXzwgtSC625YARh7HG3-6" edge="1">
          <mxGeometry relative="1" as="geometry">
            <Array as="points">
              <mxPoint x="370" y="178" />
              <mxPoint x="370" y="178" />
            </Array>
          </mxGeometry>
        </mxCell>
        <mxCell id="cwXzwgtSC625YARh7HG3-5" value="&lt;b&gt;&lt;font style=&quot;font-size: 14px&quot;&gt;Ananda_Brownis&lt;/font&gt;&lt;/b&gt;" style="rounded=0;whiteSpace=wrap;html=1;" parent="1" vertex="1">
          <mxGeometry x="300" y="237.5" width="120" height="60" as="geometry" />
        </mxCell>
        <mxCell id="cwXzwgtSC625YARh7HG3-6" value="&lt;b&gt;Kue&lt;/b&gt;" style="rounded=1;whiteSpace=wrap;html=1;arcSize=50;" parent="1" vertex="1">
          <mxGeometry x="310" y="137.5" width="120" height="40" as="geometry" />
        </mxCell>
        <mxCell id="cwXzwgtSC625YARh7HG3-7" value="&lt;b&gt;Customers&lt;/b&gt;" style="rounded=1;whiteSpace=wrap;html=1;arcSize=50;" parent="1" vertex="1">
          <mxGeometry x="165" y="137.5" width="120" height="40" as="geometry" />
        </mxCell>
        <mxCell id="cwXzwgtSC625YARh7HG3-8" value="" style="edgeStyle=orthogonalEdgeStyle;rounded=0;orthogonalLoop=1;jettySize=auto;html=1;endArrow=none;endFill=0;" parent="1" source="cwXzwgtSC625YARh7HG3-10" target="cwXzwgtSC625YARh7HG3-7" edge="1">
          <mxGeometry relative="1" as="geometry" />
        </mxCell>
        <mxCell id="cwXzwgtSC625YARh7HG3-9" value="" style="edgeStyle=orthogonalEdgeStyle;rounded=0;orthogonalLoop=1;jettySize=auto;html=1;endArrow=none;endFill=0;" parent="1" source="cwXzwgtSC625YARh7HG3-10" target="cwXzwgtSC625YARh7HG3-11" edge="1">
          <mxGeometry relative="1" as="geometry" />
        </mxCell>
        <mxCell id="cwXzwgtSC625YARh7HG3-10" value="&lt;b&gt;Transaksi&lt;/b&gt;" style="rhombus;whiteSpace=wrap;html=1;" parent="1" vertex="1">
          <mxGeometry x="190" y="230" width="70" height="75" as="geometry" />
        </mxCell>
        <mxCell id="cwXzwgtSC625YARh7HG3-11" value="&lt;b&gt;Supplier&lt;/b&gt;" style="rounded=1;whiteSpace=wrap;html=1;arcSize=50;" parent="1" vertex="1">
          <mxGeometry x="40" y="247.5" width="120" height="40" as="geometry" />
        </mxCell>
        <mxCell id="cwXzwgtSC625YARh7HG3-12" style="edgeStyle=orthogonalEdgeStyle;rounded=0;orthogonalLoop=1;jettySize=auto;html=1;entryX=1;entryY=0.5;entryDx=0;entryDy=0;endArrow=none;endFill=0;" parent="1" source="cwXzwgtSC625YARh7HG3-17" target="cwXzwgtSC625YARh7HG3-19" edge="1">
          <mxGeometry relative="1" as="geometry">
            <Array as="points">
              <mxPoint x="240" y="487.5" />
              <mxPoint x="240" y="397.5" />
            </Array>
          </mxGeometry>
        </mxCell>
        <mxCell id="cwXzwgtSC625YARh7HG3-13" style="edgeStyle=orthogonalEdgeStyle;rounded=0;orthogonalLoop=1;jettySize=auto;html=1;entryX=1;entryY=0.5;entryDx=0;entryDy=0;endArrow=none;endFill=0;" parent="1" source="cwXzwgtSC625YARh7HG3-17" target="cwXzwgtSC625YARh7HG3-22" edge="1">
          <mxGeometry relative="1" as="geometry">
            <Array as="points">
              <mxPoint x="240" y="487.5" />
              <mxPoint x="240" y="467.5" />
            </Array>
          </mxGeometry>
        </mxCell>
        <mxCell id="cwXzwgtSC625YARh7HG3-14" style="edgeStyle=orthogonalEdgeStyle;rounded=0;orthogonalLoop=1;jettySize=auto;html=1;entryX=1;entryY=0.5;entryDx=0;entryDy=0;endArrow=none;endFill=0;" parent="1" source="cwXzwgtSC625YARh7HG3-17" target="cwXzwgtSC625YARh7HG3-20" edge="1">
          <mxGeometry relative="1" as="geometry">
            <Array as="points">
              <mxPoint x="240" y="487.5" />
              <mxPoint x="240" y="537.5" />
            </Array>
          </mxGeometry>
        </mxCell>
        <mxCell id="cwXzwgtSC625YARh7HG3-15" value="" style="edgeStyle=orthogonalEdgeStyle;rounded=0;orthogonalLoop=1;jettySize=auto;html=1;endArrow=none;endFill=0;" parent="1" source="cwXzwgtSC625YARh7HG3-17" target="cwXzwgtSC625YARh7HG3-18" edge="1">
          <mxGeometry relative="1" as="geometry" />
        </mxCell>
        <mxCell id="cwXzwgtSC625YARh7HG3-16" style="edgeStyle=orthogonalEdgeStyle;rounded=0;orthogonalLoop=1;jettySize=auto;html=1;entryX=1;entryY=0.5;entryDx=0;entryDy=0;endArrow=none;endFill=0;" parent="1" source="cwXzwgtSC625YARh7HG3-17" target="cwXzwgtSC625YARh7HG3-47" edge="1">
          <mxGeometry relative="1" as="geometry">
            <Array as="points">
              <mxPoint x="240" y="487.5" />
              <mxPoint x="240" y="597.5" />
            </Array>
          </mxGeometry>
        </mxCell>
        <mxCell id="cwXzwgtSC625YARh7HG3-17" value="&lt;b&gt;&lt;font style=&quot;font-size: 14px&quot;&gt;Kue&lt;/font&gt;&lt;/b&gt;" style="rounded=0;whiteSpace=wrap;html=1;" parent="1" vertex="1">
          <mxGeometry x="300" y="457.5" width="120" height="60" as="geometry" />
        </mxCell>
        <mxCell id="cwXzwgtSC625YARh7HG3-18" value="&lt;b&gt;Kue&lt;/b&gt;" style="rounded=1;whiteSpace=wrap;html=1;arcSize=50;" parent="1" vertex="1">
          <mxGeometry x="300" y="367.5" width="120" height="40" as="geometry" />
        </mxCell>
        <mxCell id="cwXzwgtSC625YARh7HG3-19" value="&lt;b&gt;Jenis_Kue&lt;/b&gt;" style="rounded=1;whiteSpace=wrap;html=1;arcSize=50;" parent="1" vertex="1">
          <mxGeometry x="40" y="377.5" width="120" height="40" as="geometry" />
        </mxCell>
        <mxCell id="cwXzwgtSC625YARh7HG3-20" value="&lt;b&gt;Nama Kue&lt;/b&gt;" style="rounded=1;whiteSpace=wrap;html=1;arcSize=50;" parent="1" vertex="1">
          <mxGeometry x="40" y="517.5" width="120" height="40" as="geometry" />
        </mxCell>
        <mxCell id="cwXzwgtSC625YARh7HG3-21" value="" style="group" parent="1" vertex="1" connectable="0">
          <mxGeometry x="40" y="447.5" width="120" height="40" as="geometry" />
        </mxCell>
        <mxCell id="cwXzwgtSC625YARh7HG3-22" value="&lt;b&gt;Kode_Kue&lt;/b&gt;" style="rounded=1;whiteSpace=wrap;html=1;arcSize=50;" parent="cwXzwgtSC625YARh7HG3-21" vertex="1">
          <mxGeometry width="120" height="40" as="geometry" />
        </mxCell>
        <mxCell id="cwXzwgtSC625YARh7HG3-23" value="" style="endArrow=none;html=1;" parent="cwXzwgtSC625YARh7HG3-21" edge="1">
          <mxGeometry width="50" height="50" relative="1" as="geometry">
            <mxPoint x="25" y="34" as="sourcePoint" />
            <mxPoint x="95" y="34" as="targetPoint" />
          </mxGeometry>
        </mxCell>
        <mxCell id="cwXzwgtSC625YARh7HG3-24" style="edgeStyle=orthogonalEdgeStyle;rounded=0;orthogonalLoop=1;jettySize=auto;html=1;entryX=1;entryY=0.5;entryDx=0;entryDy=0;endArrow=none;endFill=0;" parent="1" source="cwXzwgtSC625YARh7HG3-26" target="cwXzwgtSC625YARh7HG3-27" edge="1">
          <mxGeometry relative="1" as="geometry" />
        </mxCell>
        <mxCell id="cwXzwgtSC625YARh7HG3-25" style="edgeStyle=orthogonalEdgeStyle;rounded=0;orthogonalLoop=1;jettySize=auto;html=1;entryX=1;entryY=0.5;entryDx=0;entryDy=0;endArrow=none;endFill=0;" parent="1" source="cwXzwgtSC625YARh7HG3-26" target="cwXzwgtSC625YARh7HG3-28" edge="1">
          <mxGeometry relative="1" as="geometry" />
        </mxCell>
        <mxCell id="cwXzwgtSC625YARh7HG3-26" value="&lt;b&gt;&lt;font style=&quot;font-size: 14px&quot;&gt;Jenis Kue&lt;/font&gt;&lt;/b&gt;" style="rounded=0;whiteSpace=wrap;html=1;" parent="1" vertex="1">
          <mxGeometry x="300" y="707.5" width="120" height="60" as="geometry" />
        </mxCell>
        <mxCell id="cwXzwgtSC625YARh7HG3-27" value="&lt;b&gt;Kue_Basah&lt;/b&gt;" style="rounded=1;whiteSpace=wrap;html=1;arcSize=50;" parent="1" vertex="1">
          <mxGeometry x="50" y="667.5" width="120" height="40" as="geometry" />
        </mxCell>
        <mxCell id="cwXzwgtSC625YARh7HG3-28" value="&lt;b&gt;Kue_kering&lt;/b&gt;" style="rounded=1;whiteSpace=wrap;html=1;arcSize=50;" parent="1" vertex="1">
          <mxGeometry x="50" y="747.5" width="120" height="40" as="geometry" />
        </mxCell>
        <mxCell id="cwXzwgtSC625YARh7HG3-29" value="" style="edgeStyle=orthogonalEdgeStyle;rounded=0;orthogonalLoop=1;jettySize=auto;html=1;endArrow=none;endFill=0;" parent="1" source="cwXzwgtSC625YARh7HG3-31" target="cwXzwgtSC625YARh7HG3-34" edge="1">
          <mxGeometry relative="1" as="geometry" />
        </mxCell>
        <mxCell id="cwXzwgtSC625YARh7HG3-30" style="edgeStyle=orthogonalEdgeStyle;rounded=0;orthogonalLoop=1;jettySize=auto;html=1;entryX=0.5;entryY=0;entryDx=0;entryDy=0;endArrow=none;endFill=0;" parent="1" source="cwXzwgtSC625YARh7HG3-31" target="cwXzwgtSC625YARh7HG3-41" edge="1">
          <mxGeometry relative="1" as="geometry" />
        </mxCell>
        <mxCell id="cwXzwgtSC625YARh7HG3-31" value="&lt;b&gt;&lt;font style=&quot;font-size: 14px&quot;&gt;Ananda_Brownis&lt;/font&gt;&lt;/b&gt;" style="rounded=0;whiteSpace=wrap;html=1;" parent="1" vertex="1">
          <mxGeometry x="800" y="220" width="120" height="60" as="geometry" />
        </mxCell>
        <mxCell id="cwXzwgtSC625YARh7HG3-32" value="" style="edgeStyle=orthogonalEdgeStyle;rounded=0;orthogonalLoop=1;jettySize=auto;html=1;endArrow=none;endFill=0;" parent="1" source="cwXzwgtSC625YARh7HG3-34" target="cwXzwgtSC625YARh7HG3-36" edge="1">
          <mxGeometry relative="1" as="geometry" />
        </mxCell>
        <mxCell id="cwXzwgtSC625YARh7HG3-33" value="" style="edgeStyle=orthogonalEdgeStyle;rounded=0;orthogonalLoop=1;jettySize=auto;html=1;endArrow=none;endFill=0;" parent="1" source="cwXzwgtSC625YARh7HG3-34" target="cwXzwgtSC625YARh7HG3-35" edge="1">
          <mxGeometry relative="1" as="geometry" />
        </mxCell>
        <mxCell id="cwXzwgtSC625YARh7HG3-34" value="&lt;b&gt;Transaksi&lt;/b&gt;" style="rhombus;whiteSpace=wrap;html=1;" parent="1" vertex="1">
          <mxGeometry x="825" y="120" width="70" height="75" as="geometry" />
        </mxCell>
        <mxCell id="cwXzwgtSC625YARh7HG3-35" value="&lt;b&gt;Customers&lt;/b&gt;" style="rounded=1;whiteSpace=wrap;html=1;arcSize=50;" parent="1" vertex="1">
          <mxGeometry x="620" y="137.5" width="120" height="40" as="geometry" />
        </mxCell>
        <mxCell id="cwXzwgtSC625YARh7HG3-36" value="&lt;b&gt;Supplier&lt;/b&gt;" style="rounded=1;whiteSpace=wrap;html=1;arcSize=50;" parent="1" vertex="1">
          <mxGeometry x="1000" y="137.5" width="120" height="40" as="geometry" />
        </mxCell>
        <mxCell id="cwXzwgtSC625YARh7HG3-37" style="edgeStyle=orthogonalEdgeStyle;rounded=0;orthogonalLoop=1;jettySize=auto;html=1;entryX=0;entryY=0.5;entryDx=0;entryDy=0;endArrow=none;endFill=0;" parent="1" source="cwXzwgtSC625YARh7HG3-41" target="cwXzwgtSC625YARh7HG3-44" edge="1">
          <mxGeometry relative="1" as="geometry" />
        </mxCell>
        <mxCell id="cwXzwgtSC625YARh7HG3-38" style="edgeStyle=orthogonalEdgeStyle;rounded=0;orthogonalLoop=1;jettySize=auto;html=1;entryX=1;entryY=0.5;entryDx=0;entryDy=0;endArrow=none;endFill=0;" parent="1" source="cwXzwgtSC625YARh7HG3-41" target="cwXzwgtSC625YARh7HG3-50" edge="1">
          <mxGeometry relative="1" as="geometry" />
        </mxCell>
        <mxCell id="cwXzwgtSC625YARh7HG3-39" style="edgeStyle=orthogonalEdgeStyle;rounded=0;orthogonalLoop=1;jettySize=auto;html=1;entryX=1;entryY=0.5;entryDx=0;entryDy=0;endArrow=none;endFill=0;" parent="1" source="cwXzwgtSC625YARh7HG3-41" target="cwXzwgtSC625YARh7HG3-48" edge="1">
          <mxGeometry relative="1" as="geometry" />
        </mxCell>
        <mxCell id="cwXzwgtSC625YARh7HG3-40" style="edgeStyle=orthogonalEdgeStyle;rounded=0;orthogonalLoop=1;jettySize=auto;html=1;entryX=0;entryY=0.5;entryDx=0;entryDy=0;endArrow=none;endFill=0;" parent="1" target="cwXzwgtSC625YARh7HG3-49" edge="1">
          <mxGeometry relative="1" as="geometry">
            <mxPoint x="690" y="540" as="sourcePoint" />
          </mxGeometry>
        </mxCell>
        <mxCell id="cwXzwgtSC625YARh7HG3-41" value="&lt;b&gt;&lt;font style=&quot;font-size: 14px&quot;&gt;Kue&lt;/font&gt;&lt;/b&gt;" style="rounded=0;whiteSpace=wrap;html=1;" parent="1" vertex="1">
          <mxGeometry x="630" y="300" width="120" height="60" as="geometry" />
        </mxCell>
        <mxCell id="cwXzwgtSC625YARh7HG3-42" style="edgeStyle=orthogonalEdgeStyle;rounded=0;orthogonalLoop=1;jettySize=auto;html=1;entryX=1;entryY=0.5;entryDx=0;entryDy=0;endArrow=none;endFill=0;" parent="1" source="cwXzwgtSC625YARh7HG3-44" target="cwXzwgtSC625YARh7HG3-46" edge="1">
          <mxGeometry relative="1" as="geometry" />
        </mxCell>
        <mxCell id="cwXzwgtSC625YARh7HG3-43" style="edgeStyle=orthogonalEdgeStyle;rounded=0;orthogonalLoop=1;jettySize=auto;html=1;entryX=0.5;entryY=0;entryDx=0;entryDy=0;endArrow=none;endFill=0;" parent="1" source="cwXzwgtSC625YARh7HG3-44" target="cwXzwgtSC625YARh7HG3-45" edge="1">
          <mxGeometry relative="1" as="geometry" />
        </mxCell>
        <mxCell id="cwXzwgtSC625YARh7HG3-44" value="&lt;b&gt;&lt;font style=&quot;font-size: 14px&quot;&gt;Jenis Kue&lt;/font&gt;&lt;/b&gt;" style="rounded=0;whiteSpace=wrap;html=1;" parent="1" vertex="1">
          <mxGeometry x="980" y="300" width="120" height="60" as="geometry" />
        </mxCell>
        <mxCell id="cwXzwgtSC625YARh7HG3-45" value="&lt;b&gt;Kue_Basah&lt;/b&gt;" style="rounded=1;whiteSpace=wrap;html=1;arcSize=50;" parent="1" vertex="1">
          <mxGeometry x="1030" y="483.5" width="120" height="40" as="geometry" />
        </mxCell>
        <mxCell id="cwXzwgtSC625YARh7HG3-46" value="&lt;b&gt;Kue_kering&lt;/b&gt;" style="rounded=1;whiteSpace=wrap;html=1;arcSize=50;" parent="1" vertex="1">
          <mxGeometry x="860" y="450" width="120" height="40" as="geometry" />
        </mxCell>
        <mxCell id="cwXzwgtSC625YARh7HG3-47" value="&lt;b&gt;Harga_kue&lt;/b&gt;" style="rounded=1;whiteSpace=wrap;html=1;arcSize=50;" parent="1" vertex="1">
          <mxGeometry x="40" y="577.5" width="120" height="40" as="geometry" />
        </mxCell>
        <mxCell id="cwXzwgtSC625YARh7HG3-48" value="&lt;b&gt;Nama Kue&lt;/b&gt;" style="rounded=1;whiteSpace=wrap;html=1;arcSize=50;" parent="1" vertex="1">
          <mxGeometry x="550" y="570" width="120" height="40" as="geometry" />
        </mxCell>
        <mxCell id="cwXzwgtSC625YARh7HG3-49" value="&lt;b&gt;Harga_kue&lt;/b&gt;" style="rounded=1;whiteSpace=wrap;html=1;arcSize=50;" parent="1" vertex="1">
          <mxGeometry x="740" y="520" width="120" height="40" as="geometry" />
        </mxCell>
        <mxCell id="cwXzwgtSC625YARh7HG3-50" value="&lt;b&gt;Kode_Kue&lt;/b&gt;" style="rounded=1;whiteSpace=wrap;html=1;arcSize=50;" parent="1" vertex="1">
          <mxGeometry x="550" y="490" width="120" height="40" as="geometry" />
        </mxCell>
        <mxCell id="cwXzwgtSC625YARh7HG3-51" value="&lt;b&gt;&lt;i&gt;&lt;u&gt;&lt;font style=&quot;font-size: 32px&quot;&gt;ER-Diagram Ananda Brownis&lt;/font&gt;&lt;/u&gt;&lt;/i&gt;&lt;/b&gt;" style="text;html=1;strokeColor=none;fillColor=none;align=center;verticalAlign=middle;whiteSpace=wrap;rounded=0;" parent="1" vertex="1">
          <mxGeometry x="350" y="30" width="560" height="70" as="geometry" />
        </mxCell>
        <mxCell id="cwXzwgtSC625YARh7HG3-52" value="&lt;b style=&quot;font-size: 10px&quot;&gt;&lt;i style=&quot;font-size: 10px&quot;&gt;&lt;span style=&quot;font-size: 10px&quot;&gt;&lt;font style=&quot;font-size: 10px&quot;&gt;Author: M. Haerudin&lt;/font&gt;&lt;/span&gt;&lt;/i&gt;&lt;/b&gt;" style="text;html=1;strokeColor=none;fillColor=none;align=center;verticalAlign=middle;whiteSpace=wrap;rounded=0;fontSize=10;fontColor=#050505;" parent="1" vertex="1">
          <mxGeometry x="300" y="780" width="100" height="27" as="geometry" />
        </mxCell>
        <mxCell id="cwXzwgtSC625YARh7HG3-53" value="&lt;b style=&quot;font-size: 10px&quot;&gt;&lt;i style=&quot;font-size: 10px&quot;&gt;&lt;span style=&quot;font-size: 10px&quot;&gt;&lt;font style=&quot;font-size: 10px&quot;&gt;Author: M. Haerudin&lt;/font&gt;&lt;/span&gt;&lt;/i&gt;&lt;/b&gt;" style="text;html=1;strokeColor=none;fillColor=none;align=center;verticalAlign=middle;whiteSpace=wrap;rounded=0;fontSize=10;fontColor=#050505;" parent="1" vertex="1">
          <mxGeometry x="1040" y="543" width="100" height="27" as="geometry" />
        </mxCell>
      </root>
    </mxGraphModel>
  </diagram>
  <diagram id="27Y8GoZUxOLOQX6kfm6K" name="Page-2">
    <mxGraphModel dx="1588" dy="922" grid="1" gridSize="10" guides="1" tooltips="1" connect="1" arrows="1" fold="1" page="1" pageScale="1" pageWidth="1169" pageHeight="827" math="0" shadow="0">
      <root>
        <mxCell id="0lNCqqSjmE3pacqFheem-0" />
        <mxCell id="0lNCqqSjmE3pacqFheem-1" parent="0lNCqqSjmE3pacqFheem-0" />
        <mxCell id="_YbfucjRMeOvFRwteOw--0" value="&lt;b&gt;&lt;i&gt;&lt;u&gt;&lt;font style=&quot;font-size: 40px&quot;&gt;@M. Haerudin&lt;/font&gt;&lt;/u&gt;&lt;/i&gt;&lt;/b&gt;" style="text;html=1;strokeColor=none;fillColor=none;align=center;verticalAlign=middle;whiteSpace=wrap;rounded=0;fontColor=#C9C9C9;" vertex="1" parent="0lNCqqSjmE3pacqFheem-1">
          <mxGeometry x="370" y="344" width="490" height="70" as="geometry" />
        </mxCell>
        <mxCell id="0lNCqqSjmE3pacqFheem-29" style="edgeStyle=orthogonalEdgeStyle;rounded=0;orthogonalLoop=1;jettySize=auto;html=1;endArrow=none;endFill=0;strokeColor=#000000;" edge="1" parent="0lNCqqSjmE3pacqFheem-1" source="0lNCqqSjmE3pacqFheem-2" target="0lNCqqSjmE3pacqFheem-11">
          <mxGeometry relative="1" as="geometry" />
        </mxCell>
        <mxCell id="0lNCqqSjmE3pacqFheem-2" value="&lt;b&gt;&lt;font style=&quot;font-size: 24px&quot;&gt;Kue&lt;/font&gt;&lt;/b&gt;" style="rounded=0;whiteSpace=wrap;html=1;" vertex="1" parent="0lNCqqSjmE3pacqFheem-1">
          <mxGeometry x="60" y="400" width="120" height="60" as="geometry" />
        </mxCell>
        <mxCell id="0lNCqqSjmE3pacqFheem-25" style="edgeStyle=orthogonalEdgeStyle;rounded=0;orthogonalLoop=1;jettySize=auto;html=1;endArrow=none;endFill=0;strokeColor=#000000;" edge="1" parent="0lNCqqSjmE3pacqFheem-1" source="0lNCqqSjmE3pacqFheem-3" target="0lNCqqSjmE3pacqFheem-10">
          <mxGeometry relative="1" as="geometry" />
        </mxCell>
        <mxCell id="0lNCqqSjmE3pacqFheem-3" value="Memiliki" style="rhombus;whiteSpace=wrap;html=1;" vertex="1" parent="0lNCqqSjmE3pacqFheem-1">
          <mxGeometry x="310" y="200" width="60" height="60" as="geometry" />
        </mxCell>
        <mxCell id="0lNCqqSjmE3pacqFheem-26" style="edgeStyle=orthogonalEdgeStyle;rounded=0;orthogonalLoop=1;jettySize=auto;html=1;endArrow=none;endFill=0;strokeColor=#000000;" edge="1" parent="0lNCqqSjmE3pacqFheem-1" source="0lNCqqSjmE3pacqFheem-6" target="0lNCqqSjmE3pacqFheem-3">
          <mxGeometry relative="1" as="geometry" />
        </mxCell>
        <mxCell id="0lNCqqSjmE3pacqFheem-6" value="&lt;b&gt;&lt;font style=&quot;font-size: 21px&quot;&gt;Kue_Kering&lt;/font&gt;&lt;/b&gt;" style="rounded=0;whiteSpace=wrap;html=1;" vertex="1" parent="0lNCqqSjmE3pacqFheem-1">
          <mxGeometry x="280" y="280" width="120" height="60" as="geometry" />
        </mxCell>
        <mxCell id="0lNCqqSjmE3pacqFheem-18" style="edgeStyle=orthogonalEdgeStyle;rounded=0;orthogonalLoop=1;jettySize=auto;html=1;entryX=0.5;entryY=0;entryDx=0;entryDy=0;endArrow=none;endFill=0;strokeColor=#000000;" edge="1" parent="0lNCqqSjmE3pacqFheem-1" source="0lNCqqSjmE3pacqFheem-10" target="0lNCqqSjmE3pacqFheem-13">
          <mxGeometry relative="1" as="geometry" />
        </mxCell>
        <mxCell id="0lNCqqSjmE3pacqFheem-19" style="edgeStyle=orthogonalEdgeStyle;rounded=0;orthogonalLoop=1;jettySize=auto;html=1;entryX=0.5;entryY=0;entryDx=0;entryDy=0;endArrow=none;endFill=0;strokeColor=#000000;" edge="1" parent="0lNCqqSjmE3pacqFheem-1" source="0lNCqqSjmE3pacqFheem-10" target="0lNCqqSjmE3pacqFheem-17">
          <mxGeometry relative="1" as="geometry" />
        </mxCell>
        <mxCell id="0lNCqqSjmE3pacqFheem-20" style="edgeStyle=orthogonalEdgeStyle;rounded=0;orthogonalLoop=1;jettySize=auto;html=1;entryX=0.5;entryY=0;entryDx=0;entryDy=0;endArrow=none;endFill=0;strokeColor=#000000;" edge="1" parent="0lNCqqSjmE3pacqFheem-1" source="0lNCqqSjmE3pacqFheem-10" target="0lNCqqSjmE3pacqFheem-16">
          <mxGeometry relative="1" as="geometry" />
        </mxCell>
        <mxCell id="0lNCqqSjmE3pacqFheem-21" style="edgeStyle=orthogonalEdgeStyle;rounded=0;orthogonalLoop=1;jettySize=auto;html=1;entryX=0.5;entryY=0;entryDx=0;entryDy=0;endArrow=none;endFill=0;strokeColor=#000000;" edge="1" parent="0lNCqqSjmE3pacqFheem-1" source="0lNCqqSjmE3pacqFheem-10" target="0lNCqqSjmE3pacqFheem-15">
          <mxGeometry relative="1" as="geometry" />
        </mxCell>
        <mxCell id="0lNCqqSjmE3pacqFheem-22" style="edgeStyle=orthogonalEdgeStyle;rounded=0;orthogonalLoop=1;jettySize=auto;html=1;entryX=0.5;entryY=0;entryDx=0;entryDy=0;endArrow=none;endFill=0;strokeColor=#000000;" edge="1" parent="0lNCqqSjmE3pacqFheem-1" source="0lNCqqSjmE3pacqFheem-10" target="0lNCqqSjmE3pacqFheem-14">
          <mxGeometry relative="1" as="geometry" />
        </mxCell>
        <mxCell id="0lNCqqSjmE3pacqFheem-10" value="&lt;b&gt;&lt;font style=&quot;font-size: 16px&quot;&gt;Kode_Jenis&lt;br&gt;_kue&lt;/font&gt;&lt;/b&gt;" style="rounded=0;whiteSpace=wrap;html=1;" vertex="1" parent="0lNCqqSjmE3pacqFheem-1">
          <mxGeometry x="280" y="90" width="120" height="60" as="geometry" />
        </mxCell>
        <mxCell id="0lNCqqSjmE3pacqFheem-28" style="edgeStyle=orthogonalEdgeStyle;rounded=0;orthogonalLoop=1;jettySize=auto;html=1;endArrow=none;endFill=0;strokeColor=#000000;" edge="1" parent="0lNCqqSjmE3pacqFheem-1" source="0lNCqqSjmE3pacqFheem-11" target="0lNCqqSjmE3pacqFheem-6">
          <mxGeometry relative="1" as="geometry" />
        </mxCell>
        <mxCell id="0lNCqqSjmE3pacqFheem-31" style="edgeStyle=orthogonalEdgeStyle;rounded=0;orthogonalLoop=1;jettySize=auto;html=1;entryX=0;entryY=0.5;entryDx=0;entryDy=0;endArrow=none;endFill=0;strokeColor=#000000;" edge="1" parent="0lNCqqSjmE3pacqFheem-1" source="0lNCqqSjmE3pacqFheem-11" target="0lNCqqSjmE3pacqFheem-30">
          <mxGeometry relative="1" as="geometry" />
        </mxCell>
        <mxCell id="0lNCqqSjmE3pacqFheem-11" value="" style="rhombus;whiteSpace=wrap;html=1;" vertex="1" parent="0lNCqqSjmE3pacqFheem-1">
          <mxGeometry x="310" y="400" width="60" height="60" as="geometry" />
        </mxCell>
        <mxCell id="0lNCqqSjmE3pacqFheem-13" value="&lt;font style=&quot;font-size: 24px&quot;&gt;&lt;b&gt;BAKR&lt;/b&gt;&lt;/font&gt;" style="rounded=1;whiteSpace=wrap;html=1;arcSize=50;" vertex="1" parent="0lNCqqSjmE3pacqFheem-1">
          <mxGeometry x="480" y="140" width="120" height="60" as="geometry" />
        </mxCell>
        <mxCell id="0lNCqqSjmE3pacqFheem-14" value="&lt;b style=&quot;font-size: 24px&quot;&gt;SWST&lt;/b&gt;" style="rounded=1;whiteSpace=wrap;html=1;arcSize=50;" vertex="1" parent="0lNCqqSjmE3pacqFheem-1">
          <mxGeometry x="1040" y="150" width="120" height="60" as="geometry" />
        </mxCell>
        <mxCell id="0lNCqqSjmE3pacqFheem-15" value="&lt;b style=&quot;font-size: 24px&quot;&gt;CHST&lt;/b&gt;" style="rounded=1;whiteSpace=wrap;html=1;arcSize=50;" vertex="1" parent="0lNCqqSjmE3pacqFheem-1">
          <mxGeometry x="900" y="150" width="120" height="60" as="geometry" />
        </mxCell>
        <mxCell id="0lNCqqSjmE3pacqFheem-16" value="&lt;b style=&quot;font-size: 24px&quot;&gt;CHRL&lt;/b&gt;" style="rounded=1;whiteSpace=wrap;html=1;arcSize=50;" vertex="1" parent="0lNCqqSjmE3pacqFheem-1">
          <mxGeometry x="760" y="150" width="120" height="60" as="geometry" />
        </mxCell>
        <mxCell id="0lNCqqSjmE3pacqFheem-17" value="&lt;b style=&quot;font-size: 24px&quot;&gt;BDUO&lt;/b&gt;" style="rounded=1;whiteSpace=wrap;html=1;arcSize=50;" vertex="1" parent="0lNCqqSjmE3pacqFheem-1">
          <mxGeometry x="620" y="140" width="120" height="60" as="geometry" />
        </mxCell>
        <mxCell id="0lNCqqSjmE3pacqFheem-23" value="&lt;b&gt;&lt;font style=&quot;font-size: 24px&quot;&gt;n&lt;/font&gt;&lt;/b&gt;" style="text;html=1;strokeColor=none;fillColor=none;align=center;verticalAlign=middle;whiteSpace=wrap;rounded=0;" vertex="1" parent="0lNCqqSjmE3pacqFheem-1">
          <mxGeometry x="440" y="100" width="40" height="20" as="geometry" />
        </mxCell>
        <mxCell id="0lNCqqSjmE3pacqFheem-27" value="&lt;font style=&quot;font-size: 24px&quot;&gt;1&lt;/font&gt;" style="text;html=1;strokeColor=none;fillColor=none;align=center;verticalAlign=middle;whiteSpace=wrap;rounded=0;" vertex="1" parent="0lNCqqSjmE3pacqFheem-1">
          <mxGeometry x="300" y="170" width="40" height="20" as="geometry" />
        </mxCell>
        <mxCell id="0lNCqqSjmE3pacqFheem-33" style="edgeStyle=orthogonalEdgeStyle;rounded=0;orthogonalLoop=1;jettySize=auto;html=1;endArrow=none;endFill=0;strokeColor=#000000;exitX=1;exitY=0.5;exitDx=0;exitDy=0;" edge="1" parent="0lNCqqSjmE3pacqFheem-1" source="0lNCqqSjmE3pacqFheem-37" target="0lNCqqSjmE3pacqFheem-32">
          <mxGeometry relative="1" as="geometry" />
        </mxCell>
        <mxCell id="0lNCqqSjmE3pacqFheem-36" style="edgeStyle=orthogonalEdgeStyle;rounded=0;orthogonalLoop=1;jettySize=auto;html=1;endArrow=none;endFill=0;strokeColor=#000000;" edge="1" parent="0lNCqqSjmE3pacqFheem-1" source="0lNCqqSjmE3pacqFheem-30" target="0lNCqqSjmE3pacqFheem-34">
          <mxGeometry relative="1" as="geometry" />
        </mxCell>
        <mxCell id="0lNCqqSjmE3pacqFheem-30" value="&lt;b&gt;&lt;font style=&quot;font-size: 21px&quot;&gt;Kue_Kering&lt;/font&gt;&lt;/b&gt;" style="rounded=0;whiteSpace=wrap;html=1;" vertex="1" parent="0lNCqqSjmE3pacqFheem-1">
          <mxGeometry x="430" y="400" width="120" height="60" as="geometry" />
        </mxCell>
        <mxCell id="0lNCqqSjmE3pacqFheem-32" value="&lt;font style=&quot;font-size: 24px&quot;&gt;&lt;b&gt;ORIG&lt;br&gt;&lt;/b&gt;&lt;/font&gt;" style="rounded=1;whiteSpace=wrap;html=1;arcSize=50;" vertex="1" parent="0lNCqqSjmE3pacqFheem-1">
          <mxGeometry x="670" y="390" width="120" height="60" as="geometry" />
        </mxCell>
        <mxCell id="0lNCqqSjmE3pacqFheem-38" style="edgeStyle=orthogonalEdgeStyle;rounded=0;orthogonalLoop=1;jettySize=auto;html=1;endArrow=none;endFill=0;strokeColor=#000000;" edge="1" parent="0lNCqqSjmE3pacqFheem-1" source="0lNCqqSjmE3pacqFheem-34" target="0lNCqqSjmE3pacqFheem-37">
          <mxGeometry relative="1" as="geometry" />
        </mxCell>
        <mxCell id="0lNCqqSjmE3pacqFheem-34" value="Memiliki" style="rhombus;whiteSpace=wrap;html=1;" vertex="1" parent="0lNCqqSjmE3pacqFheem-1">
          <mxGeometry x="460" y="300" width="60" height="60" as="geometry" />
        </mxCell>
        <mxCell id="0lNCqqSjmE3pacqFheem-41" style="edgeStyle=orthogonalEdgeStyle;rounded=0;orthogonalLoop=1;jettySize=auto;html=1;entryX=0.5;entryY=0;entryDx=0;entryDy=0;endArrow=none;endFill=0;strokeColor=#000000;" edge="1" parent="0lNCqqSjmE3pacqFheem-1" source="0lNCqqSjmE3pacqFheem-37" target="0lNCqqSjmE3pacqFheem-39">
          <mxGeometry relative="1" as="geometry" />
        </mxCell>
        <mxCell id="0lNCqqSjmE3pacqFheem-45" style="edgeStyle=orthogonalEdgeStyle;rounded=0;orthogonalLoop=1;jettySize=auto;html=1;entryX=0.5;entryY=0;entryDx=0;entryDy=0;endArrow=none;endFill=0;strokeColor=#000000;" edge="1" parent="0lNCqqSjmE3pacqFheem-1" source="0lNCqqSjmE3pacqFheem-37" target="0lNCqqSjmE3pacqFheem-44">
          <mxGeometry relative="1" as="geometry">
            <Array as="points">
              <mxPoint x="630" y="510" />
              <mxPoint x="300" y="510" />
            </Array>
          </mxGeometry>
        </mxCell>
        <mxCell id="0lNCqqSjmE3pacqFheem-48" style="edgeStyle=orthogonalEdgeStyle;rounded=0;orthogonalLoop=1;jettySize=auto;html=1;entryX=0.5;entryY=0;entryDx=0;entryDy=0;endArrow=none;endFill=0;strokeColor=#000000;" edge="1" parent="0lNCqqSjmE3pacqFheem-1" source="0lNCqqSjmE3pacqFheem-37" target="0lNCqqSjmE3pacqFheem-46">
          <mxGeometry relative="1" as="geometry">
            <Array as="points">
              <mxPoint x="630" y="510" />
              <mxPoint x="450" y="510" />
            </Array>
          </mxGeometry>
        </mxCell>
        <mxCell id="0lNCqqSjmE3pacqFheem-50" style="edgeStyle=orthogonalEdgeStyle;rounded=0;orthogonalLoop=1;jettySize=auto;html=1;entryX=0.5;entryY=0;entryDx=0;entryDy=0;endArrow=none;endFill=0;strokeColor=#000000;" edge="1" parent="0lNCqqSjmE3pacqFheem-1" source="0lNCqqSjmE3pacqFheem-37" target="0lNCqqSjmE3pacqFheem-49">
          <mxGeometry relative="1" as="geometry">
            <Array as="points">
              <mxPoint x="630" y="510" />
              <mxPoint x="590" y="510" />
            </Array>
          </mxGeometry>
        </mxCell>
        <mxCell id="0lNCqqSjmE3pacqFheem-52" style="edgeStyle=orthogonalEdgeStyle;rounded=0;orthogonalLoop=1;jettySize=auto;html=1;entryX=0.5;entryY=0;entryDx=0;entryDy=0;endArrow=none;endFill=0;strokeColor=#000000;" edge="1" parent="0lNCqqSjmE3pacqFheem-1" source="0lNCqqSjmE3pacqFheem-37" target="0lNCqqSjmE3pacqFheem-51">
          <mxGeometry relative="1" as="geometry">
            <Array as="points">
              <mxPoint x="630" y="510" />
              <mxPoint x="730" y="510" />
            </Array>
          </mxGeometry>
        </mxCell>
        <mxCell id="0lNCqqSjmE3pacqFheem-54" style="edgeStyle=orthogonalEdgeStyle;rounded=0;orthogonalLoop=1;jettySize=auto;html=1;entryX=0.5;entryY=0;entryDx=0;entryDy=0;endArrow=none;endFill=0;strokeColor=#000000;" edge="1" parent="0lNCqqSjmE3pacqFheem-1" source="0lNCqqSjmE3pacqFheem-37" target="0lNCqqSjmE3pacqFheem-53">
          <mxGeometry relative="1" as="geometry">
            <Array as="points">
              <mxPoint x="630" y="510" />
              <mxPoint x="870" y="510" />
            </Array>
          </mxGeometry>
        </mxCell>
        <mxCell id="0lNCqqSjmE3pacqFheem-56" style="edgeStyle=orthogonalEdgeStyle;rounded=0;orthogonalLoop=1;jettySize=auto;html=1;entryX=0.5;entryY=0;entryDx=0;entryDy=0;endArrow=none;endFill=0;strokeColor=#000000;" edge="1" parent="0lNCqqSjmE3pacqFheem-1" source="0lNCqqSjmE3pacqFheem-37" target="0lNCqqSjmE3pacqFheem-55">
          <mxGeometry relative="1" as="geometry">
            <Array as="points">
              <mxPoint x="630" y="510" />
              <mxPoint x="1010" y="510" />
            </Array>
          </mxGeometry>
        </mxCell>
        <mxCell id="0lNCqqSjmE3pacqFheem-58" style="edgeStyle=orthogonalEdgeStyle;rounded=0;orthogonalLoop=1;jettySize=auto;html=1;endArrow=none;endFill=0;strokeColor=#000000;" edge="1" parent="0lNCqqSjmE3pacqFheem-1" source="0lNCqqSjmE3pacqFheem-37" target="0lNCqqSjmE3pacqFheem-57">
          <mxGeometry relative="1" as="geometry">
            <Array as="points">
              <mxPoint x="630" y="510" />
              <mxPoint x="370" y="510" />
            </Array>
          </mxGeometry>
        </mxCell>
        <mxCell id="0lNCqqSjmE3pacqFheem-62" style="edgeStyle=orthogonalEdgeStyle;rounded=0;orthogonalLoop=1;jettySize=auto;html=1;endArrow=none;endFill=0;strokeColor=#000000;" edge="1" parent="0lNCqqSjmE3pacqFheem-1" source="0lNCqqSjmE3pacqFheem-37">
          <mxGeometry relative="1" as="geometry">
            <mxPoint x="520.0000000000002" y="670" as="targetPoint" />
            <Array as="points">
              <mxPoint x="630" y="510" />
              <mxPoint x="520" y="510" />
            </Array>
          </mxGeometry>
        </mxCell>
        <mxCell id="0lNCqqSjmE3pacqFheem-63" style="edgeStyle=orthogonalEdgeStyle;rounded=0;orthogonalLoop=1;jettySize=auto;html=1;entryX=0.5;entryY=0;entryDx=0;entryDy=0;endArrow=none;endFill=0;strokeColor=#000000;" edge="1" parent="0lNCqqSjmE3pacqFheem-1" source="0lNCqqSjmE3pacqFheem-37" target="0lNCqqSjmE3pacqFheem-60">
          <mxGeometry relative="1" as="geometry">
            <Array as="points">
              <mxPoint x="630" y="510" />
              <mxPoint x="660" y="510" />
            </Array>
          </mxGeometry>
        </mxCell>
        <mxCell id="0lNCqqSjmE3pacqFheem-64" style="edgeStyle=orthogonalEdgeStyle;rounded=0;orthogonalLoop=1;jettySize=auto;html=1;entryX=0.5;entryY=0;entryDx=0;entryDy=0;endArrow=none;endFill=0;strokeColor=#000000;" edge="1" parent="0lNCqqSjmE3pacqFheem-1" source="0lNCqqSjmE3pacqFheem-37" target="0lNCqqSjmE3pacqFheem-61">
          <mxGeometry relative="1" as="geometry">
            <Array as="points">
              <mxPoint x="630" y="510" />
              <mxPoint x="800" y="510" />
            </Array>
          </mxGeometry>
        </mxCell>
        <mxCell id="0lNCqqSjmE3pacqFheem-65" style="edgeStyle=orthogonalEdgeStyle;rounded=0;orthogonalLoop=1;jettySize=auto;html=1;entryX=0.5;entryY=0;entryDx=0;entryDy=0;endArrow=none;endFill=0;strokeColor=#000000;" edge="1" parent="0lNCqqSjmE3pacqFheem-1" source="0lNCqqSjmE3pacqFheem-37" target="0lNCqqSjmE3pacqFheem-43">
          <mxGeometry relative="1" as="geometry">
            <Array as="points">
              <mxPoint x="630" y="510" />
              <mxPoint x="940" y="510" />
            </Array>
          </mxGeometry>
        </mxCell>
        <mxCell id="0lNCqqSjmE3pacqFheem-37" value="&lt;b&gt;&lt;font style=&quot;font-size: 16px&quot;&gt;Kode_Jenis&lt;br&gt;_kue&lt;/font&gt;&lt;/b&gt;" style="rounded=0;whiteSpace=wrap;html=1;" vertex="1" parent="0lNCqqSjmE3pacqFheem-1">
          <mxGeometry x="570" y="300" width="120" height="60" as="geometry" />
        </mxCell>
        <mxCell id="0lNCqqSjmE3pacqFheem-39" value="&lt;font style=&quot;font-size: 24px&quot;&gt;&lt;b&gt;BABZ&lt;br&gt;&lt;/b&gt;&lt;/font&gt;" style="rounded=1;whiteSpace=wrap;html=1;arcSize=50;" vertex="1" parent="0lNCqqSjmE3pacqFheem-1">
          <mxGeometry x="810" y="390" width="120" height="60" as="geometry" />
        </mxCell>
        <mxCell id="0lNCqqSjmE3pacqFheem-43" value="&lt;font style=&quot;font-size: 24px&quot;&gt;&lt;b&gt;BLUE&lt;br&gt;&lt;/b&gt;&lt;/font&gt;" style="rounded=1;whiteSpace=wrap;html=1;arcSize=50;" vertex="1" parent="0lNCqqSjmE3pacqFheem-1">
          <mxGeometry x="880" y="680" width="120" height="60" as="geometry" />
        </mxCell>
        <mxCell id="0lNCqqSjmE3pacqFheem-44" value="&lt;font style=&quot;font-size: 24px&quot;&gt;&lt;b&gt;CHCR&lt;br&gt;&lt;/b&gt;&lt;/font&gt;" style="rounded=1;whiteSpace=wrap;html=1;arcSize=50;" vertex="1" parent="0lNCqqSjmE3pacqFheem-1">
          <mxGeometry x="240" y="560" width="120" height="60" as="geometry" />
        </mxCell>
        <mxCell id="0lNCqqSjmE3pacqFheem-46" value="&lt;font style=&quot;font-size: 24px&quot;&gt;&lt;b&gt;COMA&lt;br&gt;&lt;/b&gt;&lt;/font&gt;" style="rounded=1;whiteSpace=wrap;html=1;arcSize=50;" vertex="1" parent="0lNCqqSjmE3pacqFheem-1">
          <mxGeometry x="390" y="560" width="120" height="60" as="geometry" />
        </mxCell>
        <mxCell id="0lNCqqSjmE3pacqFheem-49" value="&lt;font style=&quot;font-size: 24px&quot;&gt;&lt;b&gt;GREE&lt;br&gt;&lt;/b&gt;&lt;/font&gt;" style="rounded=1;whiteSpace=wrap;html=1;arcSize=50;" vertex="1" parent="0lNCqqSjmE3pacqFheem-1">
          <mxGeometry x="530" y="560" width="120" height="60" as="geometry" />
        </mxCell>
        <mxCell id="0lNCqqSjmE3pacqFheem-51" value="&lt;font style=&quot;font-size: 24px&quot;&gt;&lt;b&gt;PINK&lt;br&gt;&lt;/b&gt;&lt;/font&gt;" style="rounded=1;whiteSpace=wrap;html=1;arcSize=50;" vertex="1" parent="0lNCqqSjmE3pacqFheem-1">
          <mxGeometry x="670" y="560" width="120" height="60" as="geometry" />
        </mxCell>
        <mxCell id="0lNCqqSjmE3pacqFheem-53" value="&lt;font style=&quot;font-size: 24px&quot;&gt;&lt;b&gt;SRKY&lt;br&gt;&lt;/b&gt;&lt;/font&gt;" style="rounded=1;whiteSpace=wrap;html=1;arcSize=50;" vertex="1" parent="0lNCqqSjmE3pacqFheem-1">
          <mxGeometry x="810" y="560" width="120" height="60" as="geometry" />
        </mxCell>
        <mxCell id="0lNCqqSjmE3pacqFheem-55" value="&lt;font style=&quot;font-size: 24px&quot;&gt;&lt;b&gt;TRMS&lt;br&gt;&lt;/b&gt;&lt;/font&gt;" style="rounded=1;whiteSpace=wrap;html=1;arcSize=50;" vertex="1" parent="0lNCqqSjmE3pacqFheem-1">
          <mxGeometry x="950" y="560" width="120" height="60" as="geometry" />
        </mxCell>
        <mxCell id="0lNCqqSjmE3pacqFheem-57" value="&lt;font style=&quot;font-size: 24px&quot;&gt;&lt;b&gt;KTBK&lt;br&gt;&lt;/b&gt;&lt;/font&gt;" style="rounded=1;whiteSpace=wrap;html=1;arcSize=50;" vertex="1" parent="0lNCqqSjmE3pacqFheem-1">
          <mxGeometry x="310" y="670" width="120" height="60" as="geometry" />
        </mxCell>
        <mxCell id="0lNCqqSjmE3pacqFheem-59" value="&lt;font style=&quot;font-size: 24px&quot;&gt;&lt;b&gt;PNBT&lt;br&gt;&lt;/b&gt;&lt;/font&gt;" style="rounded=1;whiteSpace=wrap;html=1;arcSize=50;" vertex="1" parent="0lNCqqSjmE3pacqFheem-1">
          <mxGeometry x="460" y="680" width="120" height="60" as="geometry" />
        </mxCell>
        <mxCell id="0lNCqqSjmE3pacqFheem-60" value="&lt;font style=&quot;font-size: 24px&quot;&gt;&lt;b&gt;BLBJ&lt;br&gt;&lt;/b&gt;&lt;/font&gt;" style="rounded=1;whiteSpace=wrap;html=1;arcSize=50;" vertex="1" parent="0lNCqqSjmE3pacqFheem-1">
          <mxGeometry x="600" y="680" width="120" height="60" as="geometry" />
        </mxCell>
        <mxCell id="0lNCqqSjmE3pacqFheem-61" value="&lt;font style=&quot;font-size: 24px&quot;&gt;&lt;b&gt;BLKJ&lt;br&gt;&lt;/b&gt;&lt;/font&gt;" style="rounded=1;whiteSpace=wrap;html=1;arcSize=50;" vertex="1" parent="0lNCqqSjmE3pacqFheem-1">
          <mxGeometry x="740" y="680" width="120" height="60" as="geometry" />
        </mxCell>
        <mxCell id="_YbfucjRMeOvFRwteOw--1" value="&lt;b&gt;&lt;font style=&quot;font-size: 24px&quot;&gt;n&lt;/font&gt;&lt;/b&gt;" style="text;html=1;strokeColor=none;fillColor=none;align=center;verticalAlign=middle;whiteSpace=wrap;rounded=0;" vertex="1" parent="0lNCqqSjmE3pacqFheem-1">
          <mxGeometry x="700" y="300" width="40" height="20" as="geometry" />
        </mxCell>
        <mxCell id="_YbfucjRMeOvFRwteOw--2" value="&lt;b&gt;&lt;font style=&quot;font-size: 24px&quot;&gt;n&lt;/font&gt;&lt;/b&gt;" style="text;html=1;strokeColor=none;fillColor=none;align=center;verticalAlign=middle;whiteSpace=wrap;rounded=0;" vertex="1" parent="0lNCqqSjmE3pacqFheem-1">
          <mxGeometry x="595" y="460" width="40" height="20" as="geometry" />
        </mxCell>
        <mxCell id="_YbfucjRMeOvFRwteOw--3" value="&lt;font style=&quot;font-size: 24px&quot;&gt;1&lt;/font&gt;" style="text;html=1;strokeColor=none;fillColor=none;align=center;verticalAlign=middle;whiteSpace=wrap;rounded=0;" vertex="1" parent="0lNCqqSjmE3pacqFheem-1">
          <mxGeometry x="520" y="300" width="40" height="20" as="geometry" />
        </mxCell>
        <mxCell id="_YbfucjRMeOvFRwteOw--4" value="&lt;b&gt;&lt;font style=&quot;font-size: 24px&quot;&gt;n&lt;/font&gt;&lt;/b&gt;" style="text;html=1;strokeColor=none;fillColor=none;align=center;verticalAlign=middle;whiteSpace=wrap;rounded=0;" vertex="1" parent="0lNCqqSjmE3pacqFheem-1">
          <mxGeometry x="260" y="404" width="40" height="20" as="geometry" />
        </mxCell>
        <mxCell id="VF_PwIjB1WbsMv0klHgG-0" value="&lt;b&gt;&lt;i&gt;&lt;u&gt;&lt;font style=&quot;font-size: 32px&quot;&gt;ER-Diagram Ananda Brownis&lt;/font&gt;&lt;/u&gt;&lt;/i&gt;&lt;/b&gt;" style="text;html=1;strokeColor=none;fillColor=none;align=center;verticalAlign=middle;whiteSpace=wrap;rounded=0;" vertex="1" parent="0lNCqqSjmE3pacqFheem-1">
          <mxGeometry x="330" y="10" width="560" height="70" as="geometry" />
        </mxCell>
        <mxCell id="LiXOW2yyz2YHiUNeeHMH-0" value="&lt;b style=&quot;font-size: 10px&quot;&gt;&lt;i style=&quot;font-size: 10px&quot;&gt;&lt;span style=&quot;font-size: 10px&quot;&gt;&lt;font style=&quot;font-size: 10px&quot;&gt;Author: M. Haerudin&lt;/font&gt;&lt;/span&gt;&lt;/i&gt;&lt;/b&gt;" style="text;html=1;strokeColor=none;fillColor=none;align=center;verticalAlign=middle;whiteSpace=wrap;rounded=0;fontSize=10;fontColor=#050505;" vertex="1" parent="0lNCqqSjmE3pacqFheem-1">
          <mxGeometry x="950" y="750" width="100" height="27" as="geometry" />
        </mxCell>
      </root>
    </mxGraphModel>
  </diagram>
  <diagram id="RRENLx0QCBjDPpS2Yplf" name="Page-3">
    <mxGraphModel dx="1985" dy="1153" grid="1" gridSize="10" guides="1" tooltips="1" connect="1" arrows="1" fold="1" page="1" pageScale="1" pageWidth="1169" pageHeight="827" math="0" shadow="0">
      <root>
        <mxCell id="YDgGOZRjEEu-bUMhDOye-0" />
        <mxCell id="YDgGOZRjEEu-bUMhDOye-1" parent="YDgGOZRjEEu-bUMhDOye-0" />
        <mxCell id="3-PVSShqdLGYGUZmRexI-41" value="" style="rounded=0;whiteSpace=wrap;html=1;fillColor=#d5e8d4;strokeColor=#82b366;" vertex="1" parent="YDgGOZRjEEu-bUMhDOye-1">
          <mxGeometry x="20" y="560" width="500" height="260" as="geometry" />
        </mxCell>
        <mxCell id="3-PVSShqdLGYGUZmRexI-40" value="" style="rounded=0;whiteSpace=wrap;html=1;fillColor=#ffe6cc;" vertex="1" parent="YDgGOZRjEEu-bUMhDOye-1">
          <mxGeometry x="20" y="250" width="500" height="310" as="geometry" />
        </mxCell>
        <mxCell id="3-PVSShqdLGYGUZmRexI-39" value="" style="rounded=0;whiteSpace=wrap;html=1;fillColor=#EBF4FF;" vertex="1" parent="YDgGOZRjEEu-bUMhDOye-1">
          <mxGeometry x="20" y="30" width="500" height="220" as="geometry" />
        </mxCell>
        <mxCell id="3-PVSShqdLGYGUZmRexI-1" style="edgeStyle=orthogonalEdgeStyle;rounded=0;orthogonalLoop=1;jettySize=auto;html=1;entryX=0.5;entryY=1;entryDx=0;entryDy=0;endArrow=none;endFill=0;strokeColor=#000000;" edge="1" parent="YDgGOZRjEEu-bUMhDOye-1" source="Ay4IQA-FYWESD1iZAV_J-0" target="Ay4IQA-FYWESD1iZAV_J-1">
          <mxGeometry relative="1" as="geometry">
            <Array as="points">
              <mxPoint x="160" y="160" />
              <mxPoint x="80" y="160" />
            </Array>
          </mxGeometry>
        </mxCell>
        <mxCell id="3-PVSShqdLGYGUZmRexI-3" style="edgeStyle=orthogonalEdgeStyle;rounded=0;orthogonalLoop=1;jettySize=auto;html=1;entryX=0.5;entryY=1;entryDx=0;entryDy=0;endArrow=none;endFill=0;strokeColor=#000000;" edge="1" parent="YDgGOZRjEEu-bUMhDOye-1" source="Ay4IQA-FYWESD1iZAV_J-0" target="3-PVSShqdLGYGUZmRexI-2">
          <mxGeometry relative="1" as="geometry">
            <Array as="points">
              <mxPoint x="160" y="160" />
              <mxPoint x="230" y="160" />
            </Array>
          </mxGeometry>
        </mxCell>
        <mxCell id="3-PVSShqdLGYGUZmRexI-6" style="edgeStyle=orthogonalEdgeStyle;rounded=0;orthogonalLoop=1;jettySize=auto;html=1;entryX=0;entryY=0.5;entryDx=0;entryDy=0;endArrow=none;endFill=0;strokeColor=#000000;" edge="1" parent="YDgGOZRjEEu-bUMhDOye-1" source="Ay4IQA-FYWESD1iZAV_J-0" target="3-PVSShqdLGYGUZmRexI-5">
          <mxGeometry relative="1" as="geometry" />
        </mxCell>
        <mxCell id="3-PVSShqdLGYGUZmRexI-8" style="edgeStyle=orthogonalEdgeStyle;rounded=0;orthogonalLoop=1;jettySize=auto;html=1;endArrow=none;endFill=0;strokeColor=#000000;" edge="1" parent="YDgGOZRjEEu-bUMhDOye-1" source="Ay4IQA-FYWESD1iZAV_J-0" target="3-PVSShqdLGYGUZmRexI-7">
          <mxGeometry relative="1" as="geometry" />
        </mxCell>
        <mxCell id="Ay4IQA-FYWESD1iZAV_J-0" value="&lt;b style=&quot;font-size: 20px&quot;&gt;&lt;font style=&quot;font-size: 20px&quot;&gt;Kode_Jenis&lt;br&gt;_kue&lt;/font&gt;&lt;/b&gt;" style="rounded=0;whiteSpace=wrap;html=1;" vertex="1" parent="YDgGOZRjEEu-bUMhDOye-1">
          <mxGeometry x="80" y="40" width="160" height="70" as="geometry" />
        </mxCell>
        <mxCell id="3-PVSShqdLGYGUZmRexI-2" value="&lt;font style=&quot;font-size: 24px&quot;&gt;&lt;b&gt;Tgl_Trx&lt;/b&gt;&lt;/font&gt;" style="rounded=1;whiteSpace=wrap;html=1;arcSize=50;" vertex="1" parent="YDgGOZRjEEu-bUMhDOye-1">
          <mxGeometry x="170" y="180" width="120" height="60" as="geometry" />
        </mxCell>
        <mxCell id="3-PVSShqdLGYGUZmRexI-4" value="" style="group" vertex="1" connectable="0" parent="YDgGOZRjEEu-bUMhDOye-1">
          <mxGeometry x="20" y="180" width="120" height="60" as="geometry" />
        </mxCell>
        <mxCell id="Ay4IQA-FYWESD1iZAV_J-1" value="&lt;font style=&quot;font-size: 24px&quot;&gt;&lt;b&gt;No_Nota&lt;/b&gt;&lt;/font&gt;" style="rounded=1;whiteSpace=wrap;html=1;arcSize=50;" vertex="1" parent="3-PVSShqdLGYGUZmRexI-4">
          <mxGeometry width="120" height="60" as="geometry" />
        </mxCell>
        <mxCell id="3-PVSShqdLGYGUZmRexI-0" value="" style="endArrow=none;html=1;" edge="1" parent="3-PVSShqdLGYGUZmRexI-4">
          <mxGeometry width="50" height="50" relative="1" as="geometry">
            <mxPoint x="20" y="50" as="sourcePoint" />
            <mxPoint x="90" y="50" as="targetPoint" />
          </mxGeometry>
        </mxCell>
        <mxCell id="3-PVSShqdLGYGUZmRexI-5" value="&lt;font style=&quot;font-size: 24px&quot;&gt;&lt;b&gt;Pembayaran&lt;/b&gt;&lt;/font&gt;" style="rounded=1;whiteSpace=wrap;html=1;arcSize=50;" vertex="1" parent="YDgGOZRjEEu-bUMhDOye-1">
          <mxGeometry x="310" y="140" width="150" height="60" as="geometry" />
        </mxCell>
        <mxCell id="3-PVSShqdLGYGUZmRexI-7" value="&lt;font style=&quot;font-size: 24px&quot;&gt;&lt;b&gt;Pesanan&lt;/b&gt;&lt;/font&gt;" style="rounded=1;whiteSpace=wrap;html=1;arcSize=50;" vertex="1" parent="YDgGOZRjEEu-bUMhDOye-1">
          <mxGeometry x="310" y="45" width="150" height="60" as="geometry" />
        </mxCell>
        <mxCell id="3-PVSShqdLGYGUZmRexI-20" style="edgeStyle=orthogonalEdgeStyle;rounded=0;orthogonalLoop=1;jettySize=auto;html=1;entryX=0;entryY=0.5;entryDx=0;entryDy=0;endArrow=none;endFill=0;strokeColor=#000000;" edge="1" parent="YDgGOZRjEEu-bUMhDOye-1" source="3-PVSShqdLGYGUZmRexI-9" target="3-PVSShqdLGYGUZmRexI-11">
          <mxGeometry relative="1" as="geometry">
            <Array as="points">
              <mxPoint x="250" y="379" />
              <mxPoint x="250" y="290" />
            </Array>
          </mxGeometry>
        </mxCell>
        <mxCell id="3-PVSShqdLGYGUZmRexI-21" style="edgeStyle=orthogonalEdgeStyle;rounded=0;orthogonalLoop=1;jettySize=auto;html=1;endArrow=none;endFill=0;strokeColor=#000000;" edge="1" parent="YDgGOZRjEEu-bUMhDOye-1" source="3-PVSShqdLGYGUZmRexI-9" target="3-PVSShqdLGYGUZmRexI-16">
          <mxGeometry relative="1" as="geometry">
            <Array as="points">
              <mxPoint x="250" y="379" />
              <mxPoint x="250" y="360" />
            </Array>
          </mxGeometry>
        </mxCell>
        <mxCell id="3-PVSShqdLGYGUZmRexI-22" style="edgeStyle=orthogonalEdgeStyle;rounded=0;orthogonalLoop=1;jettySize=auto;html=1;endArrow=none;endFill=0;strokeColor=#000000;" edge="1" parent="YDgGOZRjEEu-bUMhDOye-1" source="3-PVSShqdLGYGUZmRexI-9" target="3-PVSShqdLGYGUZmRexI-17">
          <mxGeometry relative="1" as="geometry">
            <Array as="points">
              <mxPoint x="250" y="379" />
              <mxPoint x="250" y="444" />
            </Array>
          </mxGeometry>
        </mxCell>
        <mxCell id="3-PVSShqdLGYGUZmRexI-23" style="edgeStyle=orthogonalEdgeStyle;rounded=0;orthogonalLoop=1;jettySize=auto;html=1;endArrow=none;endFill=0;strokeColor=#000000;" edge="1" parent="YDgGOZRjEEu-bUMhDOye-1" source="3-PVSShqdLGYGUZmRexI-9" target="3-PVSShqdLGYGUZmRexI-18">
          <mxGeometry relative="1" as="geometry">
            <Array as="points">
              <mxPoint x="250" y="379" />
              <mxPoint x="250" y="480" />
              <mxPoint x="380" y="480" />
            </Array>
          </mxGeometry>
        </mxCell>
        <mxCell id="3-PVSShqdLGYGUZmRexI-24" style="edgeStyle=orthogonalEdgeStyle;rounded=0;orthogonalLoop=1;jettySize=auto;html=1;entryX=0.5;entryY=0;entryDx=0;entryDy=0;endArrow=none;endFill=0;strokeColor=#000000;" edge="1" parent="YDgGOZRjEEu-bUMhDOye-1" target="3-PVSShqdLGYGUZmRexI-19">
          <mxGeometry relative="1" as="geometry">
            <mxPoint x="250" y="380" as="sourcePoint" />
            <Array as="points">
              <mxPoint x="250" y="480" />
              <mxPoint x="180" y="480" />
            </Array>
          </mxGeometry>
        </mxCell>
        <mxCell id="3-PVSShqdLGYGUZmRexI-9" value="&lt;span style=&quot;font-size: 20px&quot;&gt;&lt;b&gt;Pesanan&lt;/b&gt;&lt;/span&gt;" style="rounded=0;whiteSpace=wrap;html=1;" vertex="1" parent="YDgGOZRjEEu-bUMhDOye-1">
          <mxGeometry x="40" y="344" width="160" height="70" as="geometry" />
        </mxCell>
        <mxCell id="3-PVSShqdLGYGUZmRexI-10" value="" style="group" vertex="1" connectable="0" parent="YDgGOZRjEEu-bUMhDOye-1">
          <mxGeometry x="290" y="260" width="180" height="60" as="geometry" />
        </mxCell>
        <mxCell id="3-PVSShqdLGYGUZmRexI-11" value="&lt;font style=&quot;font-size: 24px&quot;&gt;&lt;b&gt;Kode_barang&lt;/b&gt;&lt;/font&gt;" style="rounded=1;whiteSpace=wrap;html=1;arcSize=50;" vertex="1" parent="3-PVSShqdLGYGUZmRexI-10">
          <mxGeometry width="180" height="60" as="geometry" />
        </mxCell>
        <mxCell id="3-PVSShqdLGYGUZmRexI-12" value="" style="endArrow=none;html=1;" edge="1" parent="3-PVSShqdLGYGUZmRexI-10">
          <mxGeometry width="50" height="50" relative="1" as="geometry">
            <mxPoint x="20" y="50" as="sourcePoint" />
            <mxPoint x="90" y="50" as="targetPoint" />
            <Array as="points">
              <mxPoint x="150" y="50" />
            </Array>
          </mxGeometry>
        </mxCell>
        <mxCell id="3-PVSShqdLGYGUZmRexI-16" value="&lt;font style=&quot;font-size: 24px&quot;&gt;&lt;b&gt;Nama_barang&lt;/b&gt;&lt;/font&gt;" style="rounded=1;whiteSpace=wrap;html=1;arcSize=50;" vertex="1" parent="YDgGOZRjEEu-bUMhDOye-1">
          <mxGeometry x="290" y="330" width="180" height="60" as="geometry" />
        </mxCell>
        <mxCell id="3-PVSShqdLGYGUZmRexI-17" value="&lt;span style=&quot;font-size: 24px&quot;&gt;&lt;b&gt;Harga_satuan&lt;/b&gt;&lt;/span&gt;" style="rounded=1;whiteSpace=wrap;html=1;arcSize=50;" vertex="1" parent="YDgGOZRjEEu-bUMhDOye-1">
          <mxGeometry x="290" y="413.5" width="180" height="60" as="geometry" />
        </mxCell>
        <mxCell id="3-PVSShqdLGYGUZmRexI-18" value="&lt;span style=&quot;font-size: 24px&quot;&gt;&lt;b&gt;Jumlah&lt;/b&gt;&lt;/span&gt;" style="rounded=1;whiteSpace=wrap;html=1;arcSize=50;" vertex="1" parent="YDgGOZRjEEu-bUMhDOye-1">
          <mxGeometry x="290" y="500" width="180" height="60" as="geometry" />
        </mxCell>
        <mxCell id="3-PVSShqdLGYGUZmRexI-19" value="&lt;span style=&quot;font-size: 24px&quot;&gt;&lt;b&gt;Subtotal&lt;/b&gt;&lt;/span&gt;" style="rounded=1;whiteSpace=wrap;html=1;arcSize=50;" vertex="1" parent="YDgGOZRjEEu-bUMhDOye-1">
          <mxGeometry x="90" y="500" width="180" height="60" as="geometry" />
        </mxCell>
        <mxCell id="3-PVSShqdLGYGUZmRexI-33" style="edgeStyle=orthogonalEdgeStyle;rounded=0;orthogonalLoop=1;jettySize=auto;html=1;endArrow=none;endFill=0;strokeColor=#000000;" edge="1" parent="YDgGOZRjEEu-bUMhDOye-1" source="3-PVSShqdLGYGUZmRexI-25" target="3-PVSShqdLGYGUZmRexI-26">
          <mxGeometry relative="1" as="geometry" />
        </mxCell>
        <mxCell id="3-PVSShqdLGYGUZmRexI-34" style="edgeStyle=orthogonalEdgeStyle;rounded=0;orthogonalLoop=1;jettySize=auto;html=1;entryX=0;entryY=0.5;entryDx=0;entryDy=0;endArrow=none;endFill=0;strokeColor=#000000;" edge="1" parent="YDgGOZRjEEu-bUMhDOye-1" source="3-PVSShqdLGYGUZmRexI-25" target="3-PVSShqdLGYGUZmRexI-27">
          <mxGeometry relative="1" as="geometry">
            <Array as="points">
              <mxPoint x="245" y="615" />
              <mxPoint x="245" y="700" />
            </Array>
          </mxGeometry>
        </mxCell>
        <mxCell id="3-PVSShqdLGYGUZmRexI-35" style="edgeStyle=orthogonalEdgeStyle;rounded=0;orthogonalLoop=1;jettySize=auto;html=1;entryX=0;entryY=0.5;entryDx=0;entryDy=0;endArrow=none;endFill=0;strokeColor=#000000;" edge="1" parent="YDgGOZRjEEu-bUMhDOye-1" source="3-PVSShqdLGYGUZmRexI-25" target="3-PVSShqdLGYGUZmRexI-28">
          <mxGeometry relative="1" as="geometry">
            <Array as="points">
              <mxPoint x="245" y="615" />
              <mxPoint x="245" y="780" />
            </Array>
          </mxGeometry>
        </mxCell>
        <mxCell id="3-PVSShqdLGYGUZmRexI-36" style="edgeStyle=orthogonalEdgeStyle;rounded=0;orthogonalLoop=1;jettySize=auto;html=1;entryX=1;entryY=0.5;entryDx=0;entryDy=0;endArrow=none;endFill=0;strokeColor=#000000;exitX=1;exitY=0.5;exitDx=0;exitDy=0;" edge="1" parent="YDgGOZRjEEu-bUMhDOye-1" source="3-PVSShqdLGYGUZmRexI-25" target="3-PVSShqdLGYGUZmRexI-30">
          <mxGeometry relative="1" as="geometry">
            <Array as="points">
              <mxPoint x="245" y="615" />
              <mxPoint x="245" y="700" />
            </Array>
          </mxGeometry>
        </mxCell>
        <mxCell id="3-PVSShqdLGYGUZmRexI-38" style="edgeStyle=orthogonalEdgeStyle;rounded=0;orthogonalLoop=1;jettySize=auto;html=1;entryX=1;entryY=0.5;entryDx=0;entryDy=0;endArrow=none;endFill=0;strokeColor=#000000;exitX=1;exitY=0.5;exitDx=0;exitDy=0;" edge="1" parent="YDgGOZRjEEu-bUMhDOye-1" source="3-PVSShqdLGYGUZmRexI-25" target="3-PVSShqdLGYGUZmRexI-32">
          <mxGeometry relative="1" as="geometry">
            <Array as="points">
              <mxPoint x="245" y="615" />
              <mxPoint x="245" y="780" />
            </Array>
          </mxGeometry>
        </mxCell>
        <mxCell id="3-PVSShqdLGYGUZmRexI-25" value="&lt;span style=&quot;font-size: 20px&quot;&gt;&lt;b&gt;Pembayaran&lt;/b&gt;&lt;/span&gt;" style="rounded=0;whiteSpace=wrap;html=1;" vertex="1" parent="YDgGOZRjEEu-bUMhDOye-1">
          <mxGeometry x="45" y="580" width="160" height="70" as="geometry" />
        </mxCell>
        <mxCell id="3-PVSShqdLGYGUZmRexI-26" value="&lt;span style=&quot;font-size: 24px&quot;&gt;&lt;b&gt;Total_pembayran&lt;/b&gt;&lt;/span&gt;" style="rounded=1;whiteSpace=wrap;html=1;arcSize=50;" vertex="1" parent="YDgGOZRjEEu-bUMhDOye-1">
          <mxGeometry x="295" y="580" width="220" height="70" as="geometry" />
        </mxCell>
        <mxCell id="3-PVSShqdLGYGUZmRexI-27" value="&lt;span style=&quot;font-size: 24px&quot;&gt;&lt;b&gt;Diskon&lt;/b&gt;&lt;/span&gt;" style="rounded=1;whiteSpace=wrap;html=1;arcSize=50;" vertex="1" parent="YDgGOZRjEEu-bUMhDOye-1">
          <mxGeometry x="295" y="670" width="220" height="60" as="geometry" />
        </mxCell>
        <mxCell id="3-PVSShqdLGYGUZmRexI-28" value="&lt;span style=&quot;font-size: 24px&quot;&gt;&lt;b&gt;Total_bayar&lt;/b&gt;&lt;/span&gt;" style="rounded=1;whiteSpace=wrap;html=1;arcSize=50;" vertex="1" parent="YDgGOZRjEEu-bUMhDOye-1">
          <mxGeometry x="295" y="750" width="220" height="60" as="geometry" />
        </mxCell>
        <mxCell id="3-PVSShqdLGYGUZmRexI-30" value="&lt;span style=&quot;font-size: 24px&quot;&gt;&lt;b&gt;Dibayarkan&lt;/b&gt;&lt;/span&gt;" style="rounded=1;whiteSpace=wrap;html=1;arcSize=50;" vertex="1" parent="YDgGOZRjEEu-bUMhDOye-1">
          <mxGeometry x="25" y="670" width="180" height="60" as="geometry" />
        </mxCell>
        <mxCell id="3-PVSShqdLGYGUZmRexI-32" value="&lt;span style=&quot;font-size: 24px&quot;&gt;&lt;b&gt;Kembali&lt;/b&gt;&lt;/span&gt;" style="rounded=1;whiteSpace=wrap;html=1;arcSize=50;" vertex="1" parent="YDgGOZRjEEu-bUMhDOye-1">
          <mxGeometry x="25" y="750" width="180" height="60" as="geometry" />
        </mxCell>
        <mxCell id="3-PVSShqdLGYGUZmRexI-48" style="edgeStyle=orthogonalEdgeStyle;rounded=0;orthogonalLoop=1;jettySize=auto;html=1;entryX=0.5;entryY=1;entryDx=0;entryDy=0;endArrow=none;endFill=0;strokeColor=#000000;" edge="1" parent="YDgGOZRjEEu-bUMhDOye-1" source="3-PVSShqdLGYGUZmRexI-42" target="3-PVSShqdLGYGUZmRexI-44">
          <mxGeometry relative="1" as="geometry" />
        </mxCell>
        <mxCell id="3-PVSShqdLGYGUZmRexI-49" style="edgeStyle=orthogonalEdgeStyle;rounded=0;orthogonalLoop=1;jettySize=auto;html=1;entryX=0.5;entryY=1;entryDx=0;entryDy=0;endArrow=none;endFill=0;strokeColor=#000000;" edge="1" parent="YDgGOZRjEEu-bUMhDOye-1" source="3-PVSShqdLGYGUZmRexI-42" target="3-PVSShqdLGYGUZmRexI-46">
          <mxGeometry relative="1" as="geometry" />
        </mxCell>
        <mxCell id="6rde0oDj2i3r_kdg9wiE-0" style="edgeStyle=orthogonalEdgeStyle;rounded=0;orthogonalLoop=1;jettySize=auto;html=1;endArrow=none;endFill=0;strokeColor=#000000;" edge="1" parent="YDgGOZRjEEu-bUMhDOye-1" source="3-PVSShqdLGYGUZmRexI-42" target="5F8JFjqre6c3g8Bg0XyL-0">
          <mxGeometry relative="1" as="geometry" />
        </mxCell>
        <mxCell id="3-PVSShqdLGYGUZmRexI-42" value="&lt;span style=&quot;font-size: 20px&quot;&gt;&lt;b&gt;Pesanan&lt;/b&gt;&lt;/span&gt;" style="rounded=0;whiteSpace=wrap;html=1;" vertex="1" parent="YDgGOZRjEEu-bUMhDOye-1">
          <mxGeometry x="980" y="80" width="160" height="70" as="geometry" />
        </mxCell>
        <mxCell id="3-PVSShqdLGYGUZmRexI-44" value="&lt;font style=&quot;font-size: 24px&quot;&gt;&lt;b&gt;Tgl_Trx&lt;/b&gt;&lt;/font&gt;" style="rounded=1;whiteSpace=wrap;html=1;arcSize=50;" vertex="1" parent="YDgGOZRjEEu-bUMhDOye-1">
          <mxGeometry x="810" y="20" width="120" height="60" as="geometry" />
        </mxCell>
        <mxCell id="3-PVSShqdLGYGUZmRexI-45" value="" style="group" vertex="1" connectable="0" parent="YDgGOZRjEEu-bUMhDOye-1">
          <mxGeometry x="660" y="20" width="120" height="60" as="geometry" />
        </mxCell>
        <mxCell id="3-PVSShqdLGYGUZmRexI-46" value="&lt;font style=&quot;font-size: 24px&quot;&gt;&lt;b&gt;No_Nota&lt;/b&gt;&lt;/font&gt;" style="rounded=1;whiteSpace=wrap;html=1;arcSize=50;" vertex="1" parent="3-PVSShqdLGYGUZmRexI-45">
          <mxGeometry width="120" height="60" as="geometry" />
        </mxCell>
        <mxCell id="3-PVSShqdLGYGUZmRexI-47" value="" style="endArrow=none;html=1;" edge="1" parent="3-PVSShqdLGYGUZmRexI-45">
          <mxGeometry width="50" height="50" relative="1" as="geometry">
            <mxPoint x="20" y="50" as="sourcePoint" />
            <mxPoint x="90" y="50" as="targetPoint" />
          </mxGeometry>
        </mxCell>
        <mxCell id="6rde0oDj2i3r_kdg9wiE-11" style="edgeStyle=orthogonalEdgeStyle;rounded=0;orthogonalLoop=1;jettySize=auto;html=1;endArrow=none;endFill=0;strokeColor=#000000;" edge="1" parent="YDgGOZRjEEu-bUMhDOye-1" source="3-PVSShqdLGYGUZmRexI-50" target="6rde0oDj2i3r_kdg9wiE-5">
          <mxGeometry relative="1" as="geometry" />
        </mxCell>
        <mxCell id="6rde0oDj2i3r_kdg9wiE-12" style="edgeStyle=orthogonalEdgeStyle;rounded=0;orthogonalLoop=1;jettySize=auto;html=1;entryX=1;entryY=0.5;entryDx=0;entryDy=0;endArrow=none;endFill=0;strokeColor=#000000;" edge="1" parent="YDgGOZRjEEu-bUMhDOye-1" source="3-PVSShqdLGYGUZmRexI-50" target="6rde0oDj2i3r_kdg9wiE-7">
          <mxGeometry relative="1" as="geometry" />
        </mxCell>
        <mxCell id="6rde0oDj2i3r_kdg9wiE-13" style="edgeStyle=orthogonalEdgeStyle;rounded=0;orthogonalLoop=1;jettySize=auto;html=1;entryX=1;entryY=0.5;entryDx=0;entryDy=0;endArrow=none;endFill=0;strokeColor=#000000;" edge="1" parent="YDgGOZRjEEu-bUMhDOye-1" source="3-PVSShqdLGYGUZmRexI-50" target="6rde0oDj2i3r_kdg9wiE-8">
          <mxGeometry relative="1" as="geometry" />
        </mxCell>
        <mxCell id="6rde0oDj2i3r_kdg9wiE-14" style="edgeStyle=orthogonalEdgeStyle;rounded=0;orthogonalLoop=1;jettySize=auto;html=1;entryX=1;entryY=0.5;entryDx=0;entryDy=0;endArrow=none;endFill=0;strokeColor=#000000;" edge="1" parent="YDgGOZRjEEu-bUMhDOye-1" source="3-PVSShqdLGYGUZmRexI-50" target="6rde0oDj2i3r_kdg9wiE-9">
          <mxGeometry relative="1" as="geometry" />
        </mxCell>
        <mxCell id="6rde0oDj2i3r_kdg9wiE-15" style="edgeStyle=orthogonalEdgeStyle;rounded=0;orthogonalLoop=1;jettySize=auto;html=1;entryX=1;entryY=0.5;entryDx=0;entryDy=0;endArrow=none;endFill=0;strokeColor=#000000;" edge="1" parent="YDgGOZRjEEu-bUMhDOye-1" source="3-PVSShqdLGYGUZmRexI-50" target="6rde0oDj2i3r_kdg9wiE-10">
          <mxGeometry relative="1" as="geometry" />
        </mxCell>
        <mxCell id="3-PVSShqdLGYGUZmRexI-50" value="&lt;span style=&quot;font-size: 20px&quot;&gt;&lt;b&gt;Pesanan&lt;/b&gt;&lt;/span&gt;" style="rounded=0;whiteSpace=wrap;html=1;" vertex="1" parent="YDgGOZRjEEu-bUMhDOye-1">
          <mxGeometry x="770" y="185" width="160" height="70" as="geometry" />
        </mxCell>
        <mxCell id="6rde0oDj2i3r_kdg9wiE-1" style="edgeStyle=orthogonalEdgeStyle;rounded=0;orthogonalLoop=1;jettySize=auto;html=1;endArrow=none;endFill=0;strokeColor=#000000;" edge="1" parent="YDgGOZRjEEu-bUMhDOye-1" source="5F8JFjqre6c3g8Bg0XyL-0" target="3-PVSShqdLGYGUZmRexI-50">
          <mxGeometry relative="1" as="geometry" />
        </mxCell>
        <mxCell id="6rde0oDj2i3r_kdg9wiE-3" style="edgeStyle=orthogonalEdgeStyle;rounded=0;orthogonalLoop=1;jettySize=auto;html=1;endArrow=none;endFill=0;strokeColor=#000000;" edge="1" parent="YDgGOZRjEEu-bUMhDOye-1" source="5F8JFjqre6c3g8Bg0XyL-0" target="6rde0oDj2i3r_kdg9wiE-2">
          <mxGeometry relative="1" as="geometry" />
        </mxCell>
        <mxCell id="5F8JFjqre6c3g8Bg0XyL-0" value="" style="rhombus;whiteSpace=wrap;html=1;" vertex="1" parent="YDgGOZRjEEu-bUMhDOye-1">
          <mxGeometry x="1030" y="190" width="60" height="60" as="geometry" />
        </mxCell>
        <mxCell id="6rde0oDj2i3r_kdg9wiE-22" style="edgeStyle=orthogonalEdgeStyle;rounded=0;orthogonalLoop=1;jettySize=auto;html=1;entryX=1;entryY=0.5;entryDx=0;entryDy=0;endArrow=none;endFill=0;strokeColor=#000000;" edge="1" parent="YDgGOZRjEEu-bUMhDOye-1" source="6rde0oDj2i3r_kdg9wiE-2" target="6rde0oDj2i3r_kdg9wiE-16">
          <mxGeometry relative="1" as="geometry" />
        </mxCell>
        <mxCell id="6rde0oDj2i3r_kdg9wiE-23" style="edgeStyle=orthogonalEdgeStyle;rounded=0;orthogonalLoop=1;jettySize=auto;html=1;entryX=1;entryY=0.5;entryDx=0;entryDy=0;endArrow=none;endFill=0;strokeColor=#000000;" edge="1" parent="YDgGOZRjEEu-bUMhDOye-1" source="6rde0oDj2i3r_kdg9wiE-2" target="6rde0oDj2i3r_kdg9wiE-18">
          <mxGeometry relative="1" as="geometry" />
        </mxCell>
        <mxCell id="6rde0oDj2i3r_kdg9wiE-24" style="edgeStyle=orthogonalEdgeStyle;rounded=0;orthogonalLoop=1;jettySize=auto;html=1;entryX=1;entryY=0.5;entryDx=0;entryDy=0;endArrow=none;endFill=0;strokeColor=#000000;" edge="1" parent="YDgGOZRjEEu-bUMhDOye-1" source="6rde0oDj2i3r_kdg9wiE-2" target="6rde0oDj2i3r_kdg9wiE-19">
          <mxGeometry relative="1" as="geometry" />
        </mxCell>
        <mxCell id="6rde0oDj2i3r_kdg9wiE-25" style="edgeStyle=orthogonalEdgeStyle;rounded=0;orthogonalLoop=1;jettySize=auto;html=1;entryX=1;entryY=0.5;entryDx=0;entryDy=0;endArrow=none;endFill=0;strokeColor=#000000;" edge="1" parent="YDgGOZRjEEu-bUMhDOye-1" source="6rde0oDj2i3r_kdg9wiE-2" target="6rde0oDj2i3r_kdg9wiE-20">
          <mxGeometry relative="1" as="geometry" />
        </mxCell>
        <mxCell id="6rde0oDj2i3r_kdg9wiE-26" style="edgeStyle=orthogonalEdgeStyle;rounded=0;orthogonalLoop=1;jettySize=auto;html=1;entryX=1;entryY=0.5;entryDx=0;entryDy=0;endArrow=none;endFill=0;strokeColor=#000000;" edge="1" parent="YDgGOZRjEEu-bUMhDOye-1" source="6rde0oDj2i3r_kdg9wiE-2" target="6rde0oDj2i3r_kdg9wiE-21">
          <mxGeometry relative="1" as="geometry">
            <Array as="points">
              <mxPoint x="1060" y="710" />
            </Array>
          </mxGeometry>
        </mxCell>
        <mxCell id="6rde0oDj2i3r_kdg9wiE-2" value="&lt;b style=&quot;font-size: 20px&quot;&gt;Pembayaran&lt;/b&gt;" style="rounded=0;whiteSpace=wrap;html=1;" vertex="1" parent="YDgGOZRjEEu-bUMhDOye-1">
          <mxGeometry x="980" y="290" width="160" height="70" as="geometry" />
        </mxCell>
        <mxCell id="6rde0oDj2i3r_kdg9wiE-4" value="" style="group" vertex="1" connectable="0" parent="YDgGOZRjEEu-bUMhDOye-1">
          <mxGeometry x="530" y="165" width="180" height="60" as="geometry" />
        </mxCell>
        <mxCell id="6rde0oDj2i3r_kdg9wiE-5" value="&lt;font style=&quot;font-size: 24px&quot;&gt;&lt;b&gt;Kode_barang&lt;/b&gt;&lt;/font&gt;" style="rounded=1;whiteSpace=wrap;html=1;arcSize=50;" vertex="1" parent="6rde0oDj2i3r_kdg9wiE-4">
          <mxGeometry width="180" height="60" as="geometry" />
        </mxCell>
        <mxCell id="6rde0oDj2i3r_kdg9wiE-6" value="" style="endArrow=none;html=1;" edge="1" parent="6rde0oDj2i3r_kdg9wiE-4">
          <mxGeometry width="50" height="50" relative="1" as="geometry">
            <mxPoint x="20" y="50" as="sourcePoint" />
            <mxPoint x="90" y="50" as="targetPoint" />
            <Array as="points">
              <mxPoint x="150" y="50" />
            </Array>
          </mxGeometry>
        </mxCell>
        <mxCell id="6rde0oDj2i3r_kdg9wiE-7" value="&lt;font style=&quot;font-size: 24px&quot;&gt;&lt;b&gt;Nama_barang&lt;/b&gt;&lt;/font&gt;" style="rounded=1;whiteSpace=wrap;html=1;arcSize=50;" vertex="1" parent="YDgGOZRjEEu-bUMhDOye-1">
          <mxGeometry x="530" y="250" width="180" height="60" as="geometry" />
        </mxCell>
        <mxCell id="6rde0oDj2i3r_kdg9wiE-8" value="&lt;span style=&quot;font-size: 24px&quot;&gt;&lt;b&gt;Harga_satuan&lt;/b&gt;&lt;/span&gt;" style="rounded=1;whiteSpace=wrap;html=1;arcSize=50;" vertex="1" parent="YDgGOZRjEEu-bUMhDOye-1">
          <mxGeometry x="530" y="320" width="180" height="60" as="geometry" />
        </mxCell>
        <mxCell id="6rde0oDj2i3r_kdg9wiE-9" value="&lt;span style=&quot;font-size: 24px&quot;&gt;&lt;b&gt;Jumlah&lt;/b&gt;&lt;/span&gt;" style="rounded=1;whiteSpace=wrap;html=1;arcSize=50;" vertex="1" parent="YDgGOZRjEEu-bUMhDOye-1">
          <mxGeometry x="530" y="400" width="180" height="60" as="geometry" />
        </mxCell>
        <mxCell id="6rde0oDj2i3r_kdg9wiE-10" value="&lt;span style=&quot;font-size: 24px&quot;&gt;&lt;b&gt;Subtotal&lt;/b&gt;&lt;/span&gt;" style="rounded=1;whiteSpace=wrap;html=1;arcSize=50;" vertex="1" parent="YDgGOZRjEEu-bUMhDOye-1">
          <mxGeometry x="530" y="490" width="180" height="60" as="geometry" />
        </mxCell>
        <mxCell id="6rde0oDj2i3r_kdg9wiE-16" value="&lt;span style=&quot;font-size: 24px&quot;&gt;&lt;b&gt;Total_pembayran&lt;/b&gt;&lt;/span&gt;" style="rounded=1;whiteSpace=wrap;html=1;arcSize=50;" vertex="1" parent="YDgGOZRjEEu-bUMhDOye-1">
          <mxGeometry x="780" y="420" width="220" height="70" as="geometry" />
        </mxCell>
        <mxCell id="6rde0oDj2i3r_kdg9wiE-18" value="&lt;span style=&quot;font-size: 24px&quot;&gt;&lt;b&gt;Diskon&lt;/b&gt;&lt;/span&gt;" style="rounded=1;whiteSpace=wrap;html=1;arcSize=50;" vertex="1" parent="YDgGOZRjEEu-bUMhDOye-1">
          <mxGeometry x="780" y="530" width="220" height="60" as="geometry" />
        </mxCell>
        <mxCell id="6rde0oDj2i3r_kdg9wiE-19" value="&lt;span style=&quot;font-size: 24px&quot;&gt;&lt;b&gt;Total_bayar&lt;/b&gt;&lt;/span&gt;" style="rounded=1;whiteSpace=wrap;html=1;arcSize=50;" vertex="1" parent="YDgGOZRjEEu-bUMhDOye-1">
          <mxGeometry x="780" y="620" width="220" height="60" as="geometry" />
        </mxCell>
        <mxCell id="6rde0oDj2i3r_kdg9wiE-20" value="&lt;span style=&quot;font-size: 24px&quot;&gt;&lt;b&gt;Dibayarkan&lt;/b&gt;&lt;/span&gt;" style="rounded=1;whiteSpace=wrap;html=1;arcSize=50;" vertex="1" parent="YDgGOZRjEEu-bUMhDOye-1">
          <mxGeometry x="780" y="730" width="220" height="60" as="geometry" />
        </mxCell>
        <mxCell id="6rde0oDj2i3r_kdg9wiE-21" value="&lt;span style=&quot;font-size: 24px&quot;&gt;&lt;b&gt;Kembali&lt;/b&gt;&lt;/span&gt;" style="rounded=1;whiteSpace=wrap;html=1;arcSize=50;" vertex="1" parent="YDgGOZRjEEu-bUMhDOye-1">
          <mxGeometry x="560" y="680" width="180" height="60" as="geometry" />
        </mxCell>
        <mxCell id="W9gixjQqahoFGpDLtNgX-0" value="&lt;b&gt;&lt;font style=&quot;font-size: 24px&quot;&gt;n&lt;/font&gt;&lt;/b&gt;" style="text;html=1;strokeColor=none;fillColor=none;align=center;verticalAlign=middle;whiteSpace=wrap;rounded=0;" vertex="1" parent="YDgGOZRjEEu-bUMhDOye-1">
          <mxGeometry x="720" y="170" width="40" height="20" as="geometry" />
        </mxCell>
        <mxCell id="W9gixjQqahoFGpDLtNgX-1" value="&lt;font style=&quot;font-size: 24px&quot;&gt;1&lt;/font&gt;" style="text;html=1;strokeColor=none;fillColor=none;align=center;verticalAlign=middle;whiteSpace=wrap;rounded=0;" vertex="1" parent="YDgGOZRjEEu-bUMhDOye-1">
          <mxGeometry x="1020" y="260" width="40" height="20" as="geometry" />
        </mxCell>
        <mxCell id="W9gixjQqahoFGpDLtNgX-2" value="&lt;b&gt;&lt;font style=&quot;font-size: 24px&quot;&gt;n&lt;/font&gt;&lt;/b&gt;" style="text;html=1;strokeColor=none;fillColor=none;align=center;verticalAlign=middle;whiteSpace=wrap;rounded=0;" vertex="1" parent="YDgGOZRjEEu-bUMhDOye-1">
          <mxGeometry x="1020" y="380" width="40" height="20" as="geometry" />
        </mxCell>
        <mxCell id="W9gixjQqahoFGpDLtNgX-4" value="&lt;b&gt;&lt;font style=&quot;font-size: 24px&quot;&gt;n&lt;/font&gt;&lt;/b&gt;" style="text;html=1;strokeColor=none;fillColor=none;align=center;verticalAlign=middle;whiteSpace=wrap;rounded=0;" vertex="1" parent="YDgGOZRjEEu-bUMhDOye-1">
          <mxGeometry x="910" y="90" width="40" height="20" as="geometry" />
        </mxCell>
        <mxCell id="W9gixjQqahoFGpDLtNgX-5" value="&lt;font style=&quot;font-size: 24px&quot;&gt;1&lt;/font&gt;" style="text;html=1;strokeColor=none;fillColor=none;align=center;verticalAlign=middle;whiteSpace=wrap;rounded=0;" vertex="1" parent="YDgGOZRjEEu-bUMhDOye-1">
          <mxGeometry x="940" y="190" width="40" height="20" as="geometry" />
        </mxCell>
      </root>
    </mxGraphModel>
  </diagram>
</mxfile>
